<svg xmlns="http://www.w3.org/2000/svg" version="1.1" xmlns:xlink="http://www.w3.org/1999/xlink"
    xmlns:svgjs="http://svgjs.com/svgjs" width="512" height="512" x="0" y="0" viewBox="0 0 512 512"
    style="enable-background:new 0 0 512 512" xml:space="preserve" class="">
    <g>
        <path fill="#83d9ff"
            d="M0 256C0 114.613 114.613 0 256 0s256 114.613 256 256-114.613 256-256 256S0 397.387 0 256zm256 153.086c84.547 0 153.086-68.54 153.086-153.086S340.546 102.914 256 102.914 102.914 171.454 102.914 256 171.454 409.086 256 409.086zm0 0"
            data-original="#83d9ff"></path>
        <path fill="#3fefef"
            d="M256 512V409.086c19.543 0 38.219-3.656 55.402-10.332l35.211 96.742C318.437 506.16 287.906 512 256 512zm0 0"
            data-original="#3fefef"></path>
        <path fill="#1dd1d9"
            d="M311.402 398.754c17.688-6.871 33.79-16.938 47.594-29.496l66.192 78.87c-22.922 20.192-49.481 36.356-78.575 47.368zm0 0"
            data-original="#1dd1d9"></path>
        <path fill="#17b5ba"
            d="M358.996 369.258a153.8 153.8 0 0 0 33.531-43.926l89.203 51.508c-14.492 27.031-33.714 51.168-56.546 71.289zm0 0"
            data-original="#17b5ba"></path>
        <path fill="#9be058"
            d="m404.89 220.262 101.473-17.895C510.063 219.664 512 237.602 512 256c0 11.95-.824 23.703-2.41 35.223L408.117 273.34c.637-5.688.969-11.477.969-17.34 0-12.313-1.453-24.27-4.195-35.738zm0 0"
            data-original="#9be058"></path>
        <path fill="#c0ff66"
            d="m384.3 172.441 89.212-51.507c15.34 24.664 26.61 52.117 32.851 81.433l-101.472 17.895a152.356 152.356 0 0 0-20.59-47.82zm0 0"
            data-original="#c0ff66"></path>
        <path fill="#ffdf46"
            d="m349.652 134.902 66.192-78.882a257.357 257.357 0 0 1 57.668 64.914L384.3 172.44a154.106 154.106 0 0 0-34.649-37.539zm0 0"
            data-original="#ffdf46"></path>
        <path fill="#fc3e81"
            d="M171.484 14.29C197.95 5.026 226.383 0 256 0v102.914c-17.258 0-33.84 2.856-49.316 8.117zm0 0"
            data-original="#fc3e81"></path>
        <path fill="#f01054"
            d="M96.156 56.02c22.348-17.883 47.758-32.098 75.317-41.73h.011l35.2 96.741a152.459 152.459 0 0 0-44.336 23.871zm0 0"
            data-original="#f01054" class=""></path>
        <path fill="#7884ea"
            d="M38.488 120.934A257.424 257.424 0 0 1 96.156 56.02l66.192 78.882a154.013 154.013 0 0 0-34.645 37.54zm0 0"
            data-original="#7884ea" class=""></path>
        <path fill="#1685fb"
            d="m2.41 291.223 101.473-17.883a152.221 152.221 0 0 0 15.59 51.992L30.266 376.84A254.073 254.073 0 0 1 2.41 291.223zm0 0"
            data-original="#1685fb"></path>
        <path fill="#43a3f9"
            d="m30.266 376.84 89.203-51.508a153.883 153.883 0 0 0 33.535 43.926l-66.191 78.87c-22.829-20.12-42.051-44.257-56.547-71.288zm0 0"
            data-original="#43a3f9"></path>
        <path fill="#64bdff"
            d="m86.813 448.129 66.19-78.871a153.1 153.1 0 0 0 47.595 29.496l-35.215 96.742c-29.09-11.012-55.649-27.176-78.57-47.367zm0 0"
            data-original="#64bdff"></path>
        <path fill="#4a5be5"
            d="M5.637 202.367c6.242-29.316 17.511-56.77 32.851-81.433L127.7 172.44a152.356 152.356 0 0 0-20.59 47.82zm0 0"
            data-original="#4a5be5"></path>
        <path fill="#1cc939"
            d="M392.531 325.332a152.328 152.328 0 0 0 15.586-51.992l101.473 17.883a254.073 254.073 0 0 1-27.856 85.617zm0 0"
            data-original="#1cc939"></path>
        <path fill="#364ec6"
            d="M0 256c0-18.398 1.938-36.336 5.637-53.633l101.472 17.895A153.463 153.463 0 0 0 102.914 256c0 5.863.332 11.652.969 17.34L2.41 291.223A258.102 258.102 0 0 1 0 256zm0 0"
            data-original="#364ec6"></path>
        <path fill="#f9b200"
            d="m305.316 111.031 35.211-96.742c27.559 9.633 52.973 23.848 75.317 41.734l-66.188 78.88a152.58 152.58 0 0 0-44.34-23.872zm0 0"
            data-original="#f9b200"></path>
        <path fill="#fd6096"
            d="M256 102.914V0c29.617 0 58.063 5.027 84.527 14.29l-35.215 96.741c-15.472-5.261-32.054-8.117-49.312-8.117zm0 0"
            data-original="#fd6096"></path>
    </g>
</svg>